<svg xmlns="http://www.w3.org/2000/svg" width="1200" height="120" viewBox="0 0 1200 120">
  <style>
    .C{transform: translate(0px,0)}
    .H{transform: translate(6px,0)}
    .U{transform: translate(12px,0)}
    .R{transform: translate(18px,0)}
    .A{transform: translate(24px,0)}
    .D{transform: translate(30px,0)}
    .T{transform: translate(36px,0)}
    .B{transform: translate(42px,0)}
    .Y{transform: translate(48px,0)}
  </style>
  <g fill="rgba(0,0,0,0.4)" stroke="red" stroke-width="0.1" transform="scale(10,10)">
    <g class="C">
      <path d="M5,2 L4,0 L1,0 L0,2 L0,5 L1,7 L4,7 L5,5 L4,5 L3.5,6 L1.5,6 L1,5 L1,2 L1.5,1 L3.5,1 L4,2z" />
    </g>
    <g class="H">
      <path d="M0,0 L0,7 L1,7 L1,0z" />
      <path d="M4,0 L4,7 L5,7 L5,0z" />
      <path d="M1,4 L4,4 L4,3 L1,3z" />
    </g>
    <g class="U">
      <path d="M0,0 L0,6 L1,7 L3,7 L4,6 L4,0 L3,0 L3,6 L1,6 L1,0z" />
    </g>
    <g class="R">
      <path d="M0,0 L0,7 L1,7 L1,0z" />
      <path d="M1,0 L4,0 L5,1 L5,3 L4,4 L1,4 L1,3 L3.5,3 L4,2.5 L4,1.5 L3.5,1 L1,1z" />
      <path d="M3,4 L4,7 L5,7 L4,4z" />
    </g>
    <g class="A">
      <path d="M0,7 L1,7 L3,0 L2,0z" />
      <path d="M1,3.5 L4,3.5 L4,4.5 L1,4.5z" />
      <path d="M4,7 L5,7 L3,0 L2,0z" />
    </g>
    <g class="D">
      <path d="M0,0 L0,7 L1,7 L1,0z" />
      <path d="M5,5 L5,2 L4,0 L1,0 L0,2 L0,5 L1,7 L4,7 L5,5 L4,5 L3.5,6 L1.5,6 L1,5 L1,2 L1.5,1 L3.5,1 L4,2 L4,5z" />      
    </g>
    <g class="T">
      <path d="M0,0 L0,1 L2,1 L2,7 L3,7 L3,1 L5,1 L5,0z" />
    </g>
    <g class="B">
      <path d="M0,0 L0,7 L1,7 L1,0z" />
      <path d="M1,0 L4,0 L5,1 L5,3 L4,4 L1,4 L1,3 L3.5,3 L4,2.5 L4,1.5 L3.5,1 L1,1z" />
      <path d="M1,7 L4,7 L5,6 L5,4 L4,3 L1,3 L1,4 L3.5,4 L4,4.5 L4,5.5 L3.5,6 L1,6z" /> 
    </g>
    <g class="Y">
      <path d="M3,3 L3,7 L4,7 L4,3z" />
      <path d="M0,0 L2,0 L4,3 L3,3z" />
      <path d="M7,0 L5,0 L3,3 L4,3z" />
    </g>
  </g>
</svg>
